<?xml version="1.0" standalone="no"?>
<!DOCTYPE svg PUBLIC "-//W3C//DTD SVG 20010904//EN"
 "http://www.w3.org/TR/2001/REC-SVG-20010904/DTD/svg10.dtd">
<svg version="1.0" xmlns="http://www.w3.org/2000/svg"
 width="984.000000pt" height="136.000000pt" viewBox="0 0 984.000000 136.000000"
 preserveAspectRatio="xMidYMid meet">

<g transform="translate(0.000000,136.000000) scale(0.100000,-0.100000)"
fill="#000000" stroke="none">
<path d="M930 1328 l-85 -20 0 -466 c0 -257 -3 -482 -7 -499 l-7 -33 85 0 c77
0 86 2 91 20 3 11 6 20 8 20 1 0 24 -12 49 -26 37 -21 61 -26 109 -26 76 0
122 18 180 71 136 126 153 429 32 587 -61 80 -225 115 -309 66 -20 -12 -39
-22 -42 -22 -2 0 -4 79 -4 175 0 96 -3 174 -7 174 -5 -1 -46 -10 -93 -21z
m273 -459 c40 -30 50 -80 45 -220 -3 -99 -7 -129 -21 -151 -33 -49 -102 -56
-165 -17 -21 13 -22 20 -22 186 l0 171 31 26 c38 33 95 35 132 5z"/>
<path d="M3156 1282 c-6 -10 -316 -956 -316 -965 0 -4 45 -7 100 -7 l99 0 31
103 c17 56 33 108 35 115 3 9 42 12 148 12 l144 0 33 -115 33 -115 105 0 c94
0 104 2 100 18 -3 9 -72 230 -153 490 l-149 472 -102 0 c-57 0 -105 -3 -108
-8z m143 -394 c23 -91 41 -171 41 -177 0 -7 -32 -11 -91 -11 -90 0 -91 0 -85
23 4 12 25 93 48 180 23 86 42 156 44 155 1 -2 20 -78 43 -170z"/>
<path d="M7103 1275 c-183 -57 -273 -217 -273 -484 0 -67 7 -143 15 -179 32
-137 109 -237 220 -289 52 -24 72 -28 150 -28 116 1 178 28 258 115 91 97 124
220 114 420 -9 181 -50 286 -148 374 -84 76 -226 106 -336 71z m227 -109 c97
-64 131 -165 133 -386 1 -156 -12 -229 -53 -293 -104 -164 -368 -125 -424 62
-42 144 -46 374 -7 487 24 69 89 136 148 153 64 17 158 7 203 -23z"/>
<path d="M1710 798 l-45 -483 94 -3 c51 -1 95 -1 97 0 2 3 43 567 45 629 0 13
16 -34 34 -106 19 -71 58 -218 88 -325 l53 -195 85 -3 84 -3 88 308 c104 364
105 367 106 290 1 -58 25 -416 37 -534 l6 -63 94 0 c91 0 94 1 93 23 0 12 -19
229 -42 482 l-42 460 -126 3 -125 3 -76 -283 c-42 -156 -79 -296 -83 -313 -6
-29 -12 -10 -146 513 l-21 82 -127 0 -126 0 -45 -482z"/>
<path d="M3700 1200 l0 -80 120 0 120 0 0 -405 0 -405 100 0 100 0 0 405 0
405 114 0 115 0 11 58 c6 31 14 67 17 80 l5 22 -351 0 -351 0 0 -80z"/>
<path d="M4580 795 l0 -485 95 0 95 0 0 215 0 215 140 0 140 0 0 -215 0 -215
100 0 100 0 0 485 0 485 -100 0 -100 0 0 -190 0 -190 -140 0 -140 0 0 190 0
190 -95 0 -95 0 0 -485z"/>
<path d="M5570 1080 l0 -200 200 0 200 0 0 -285 0 -285 285 0 285 0 0 285 0
285 -285 0 -285 0 0 200 0 200 -200 0 -200 0 0 -200z"/>
<path d="M70 965 l0 -64 154 -3 153 -3 -168 -235 -168 -235 -1 -58 0 -57 267
2 266 3 18 50 c10 28 18 56 18 62 1 9 -40 13 -159 15 l-159 3 154 225 155 224
0 68 0 68 -265 0 -265 0 0 -65z"/>
<path d="M7841 1017 l-53 -9 6 -36 c3 -21 6 -243 6 -496 l0 -458 38 6 c78 14
72 -1 72 181 l0 165 46 -29 c179 -114 370 -18 414 207 16 79 8 219 -16 292
-24 71 -101 153 -159 169 -88 24 -170 9 -240 -44 l-45 -35 -1 33 c-1 58 -8 64
-68 54z m336 -117 c18 -10 39 -32 47 -48 24 -46 39 -159 33 -249 -7 -111 -35
-169 -97 -201 -57 -29 -94 -28 -158 4 -90 45 -92 51 -92 245 0 164 1 168 25
197 57 68 175 93 242 52z"/>
<path d="M8777 1020 c-60 -15 -91 -35 -141 -91 -57 -64 -86 -149 -86 -255 0
-182 62 -301 184 -355 94 -41 255 -22 336 40 l24 19 -19 35 -19 36 -44 -26
c-93 -55 -203 -49 -273 14 -41 37 -54 67 -64 151 l-7 52 222 0 223 0 -5 98
c-6 107 -20 151 -67 205 -58 66 -173 99 -264 77z m133 -98 c45 -22 80 -89 80
-154 l0 -48 -153 0 c-85 0 -156 2 -159 5 -9 9 10 102 27 139 34 71 127 97 205
58z"/>
<path d="M9320 1007 l-35 -12 11 -50 c8 -32 12 -157 13 -342 l1 -293 50 0 50
0 2 262 3 262 42 32 c98 75 204 79 237 10 13 -29 16 -76 16 -300 l0 -266 55 0
55 0 0 287 c0 271 -1 289 -21 330 -55 113 -215 126 -344 27 -20 -15 -37 -25
-38 -23 -2 2 -8 22 -13 44 -10 45 -26 51 -84 32z"/>
</g>
</svg>
